<svg width="43" height="10" viewBox="0 0 43 10" fill="none" xmlns="http://www.w3.org/2000/svg">
<path fill-rule="evenodd" clip-rule="evenodd" d="M7.80877 5.93581L6.30543 2.27464L4.81127 5.93581H7.80877ZM22.2169 9.89764L22.2078 2.70731L19.0251 9.89764H17.1001L13.9064 2.69997V9.89764H9.4441L8.60077 7.84981H4.03027L3.17777 9.89764H0.794434L4.7251 0.716309H7.98477L11.7174 9.40997V0.716309H15.2998L18.1726 6.94414L20.8108 0.716309H24.4664V9.89764H22.2169ZM27.9608 8.02031V6.19247H32.7788V4.31881H27.9608V2.64864H33.4626L35.8643 5.32531L33.3563 8.02031H27.9608ZM42.8309 9.93431H39.9783L37.2759 6.89281L34.4673 9.93431H25.7736V0.749308H34.6011L37.3016 3.75964L40.0938 0.749308H42.9611L38.6949 5.34181L42.8309 9.93431Z" fill="white"/>
</svg>
