<svg width="90" height="30" viewBox="0 0 65 26" fill="none" xmlns="http://www.w3.org/2000/svg">
<path d="M11.8767 3.33971C11.115 4.21459 9.89602 4.90488 8.67714 4.80618C8.5248 3.62324 9.12148 2.36612 9.81985 1.5897C10.5816 0.690171 11.9148 0.0492891 12.9941 0C13.121 1.23235 12.6258 2.44006 11.8767 3.33971ZM12.9814 5.04043C11.2165 4.94185 9.70559 6.01389 8.86757 6.01389C8.01699 6.01389 6.73451 5.08972 5.3379 5.11436C3.52234 5.13901 1.83361 6.13711 0.906724 7.72693C-0.997827 10.9064 0.411607 15.6142 2.25255 18.2021C3.15405 19.4837 4.23328 20.8886 5.65528 20.8393C7.00124 20.79 7.53444 19.9891 9.15969 19.9891C10.7975 19.9891 11.2674 20.8393 12.6894 20.8147C14.1622 20.79 15.089 19.5331 15.9905 18.2514C17.0189 16.7972 17.4379 15.3799 17.4633 15.306C17.4379 15.2813 14.6193 14.234 14.5939 11.079C14.5685 8.44175 16.8159 7.18475 16.9174 7.11082C15.6476 5.28687 13.667 5.08972 12.9814 5.04043ZM23.177 1.46647V20.6792H26.2495V14.1107H30.5029C34.3881 14.1107 37.1179 11.5228 37.1179 7.77634C37.1179 4.03 34.4389 1.4666 30.6045 1.4666H23.1768L23.177 1.46647ZM26.2495 3.98059H29.7919C32.4583 3.98059 33.9818 5.36081 33.9818 7.78854C33.9818 10.2163 32.4583 11.6089 29.7792 11.6089H26.2495V3.98059ZM42.7299 20.827C44.6598 20.827 46.45 19.8782 47.2626 18.3746H47.3261V20.6791H50.1702V11.1159C50.1702 8.34317 47.8848 6.55619 44.3677 6.55619C41.1047 6.55619 38.6923 8.36781 38.6034 10.8572H41.3714C41.5999 9.6741 42.7298 8.89767 44.2789 8.89767C46.158 8.89767 47.2119 9.74803 47.2119 11.3132V12.3729L43.3774 12.5947C39.8096 12.8042 37.8798 14.2215 37.8798 16.6863C37.8798 19.1757 39.8731 20.827 42.7299 20.827ZM43.5551 18.5471C41.9174 18.5471 40.8761 17.7831 40.8761 16.6123C40.8761 15.4047 41.8792 14.7022 43.7964 14.5913L47.2119 14.3818V15.4662C47.2119 17.2655 45.6375 18.5471 43.5552 18.5471H43.5551ZM53.9665 25.9044C56.963 25.9044 58.3723 24.7954 59.6039 21.4309L65 6.74102H61.8766L58.2581 18.0911H58.1946L54.576 6.74102H51.3637L56.5693 20.7284L56.29 21.5788C55.8203 23.0206 55.0584 23.5752 53.6999 23.5752C53.4587 23.5752 52.989 23.5506 52.7984 23.5259V25.8304C52.9762 25.8797 53.7379 25.9044 53.9665 25.9044Z" fill="#0D0919"/>
</svg>
