<svg width="80" height="80" viewBox="0 0 80 80" fill="none" xmlns="http://www.w3.org/2000/svg">
<path d="M74.4039 31.1477C73.0785 29.7625 71.7074 28.3352 71.1906 27.0801C70.7125 25.9305 70.6844 24.025 70.6562 22.1793C70.6035 18.748 70.5473 14.8598 67.8438 12.1562C65.1402 9.45273 61.252 9.39648 57.8207 9.34375C55.975 9.31563 54.0695 9.2875 52.9199 8.80937C51.6684 8.29258 50.2375 6.92148 48.8523 5.59609C46.4266 3.26523 43.6703 0.625 40 0.625C36.3297 0.625 33.577 3.26523 31.1477 5.59609C29.7625 6.92148 28.3352 8.29258 27.0801 8.80937C25.9375 9.2875 24.025 9.31563 22.1793 9.34375C18.748 9.39648 14.8598 9.45273 12.1562 12.1562C9.45273 14.8598 9.41406 18.748 9.34375 22.1793C9.31563 24.025 9.2875 25.9305 8.80937 27.0801C8.29258 28.3316 6.92148 29.7625 5.59609 31.1477C3.26523 33.5734 0.625 36.3297 0.625 40C0.625 43.6703 3.26523 46.423 5.59609 48.8523C6.92148 50.2375 8.29258 51.6648 8.80937 52.9199C9.2875 54.0695 9.31563 55.975 9.34375 57.8207C9.39648 61.252 9.45273 65.1402 12.1562 67.8438C14.8598 70.5473 18.748 70.6035 22.1793 70.6562C24.025 70.6844 25.9305 70.7125 27.0801 71.1906C28.3316 71.7074 29.7625 73.0785 31.1477 74.4039C33.5734 76.7348 36.3297 79.375 40 79.375C43.6703 79.375 46.423 76.7348 48.8523 74.4039C50.2375 73.0785 51.6648 71.7074 52.9199 71.1906C54.0695 70.7125 55.975 70.6844 57.8207 70.6562C61.252 70.6035 65.1402 70.5473 67.8438 67.8438C70.5473 65.1402 70.6035 61.252 70.6562 57.8207C70.6844 55.975 70.7125 54.0695 71.1906 52.9199C71.7074 51.6684 73.0785 50.2375 74.4039 48.8523C76.7348 46.4266 79.375 43.6703 79.375 40C79.375 36.3297 76.7348 33.577 74.4039 31.1477ZM56.0523 33.5523L36.3648 53.2398C36.1036 53.5013 35.7935 53.7088 35.452 53.8503C35.1106 53.9919 34.7446 54.0647 34.375 54.0647C34.0054 54.0647 33.6394 53.9919 33.298 53.8503C32.9565 53.7088 32.6464 53.5013 32.3852 53.2398L23.9477 44.8023C23.6863 44.541 23.4791 44.2308 23.3376 43.8894C23.1962 43.548 23.1234 43.182 23.1234 42.8125C23.1234 42.443 23.1962 42.077 23.3376 41.7356C23.4791 41.3942 23.6863 41.084 23.9477 40.8227C24.4754 40.2949 25.1912 39.9984 25.9375 39.9984C26.307 39.9984 26.673 40.0712 27.0144 40.2126C27.3558 40.3541 27.666 40.5613 27.9273 40.8227L34.375 47.2738L52.0727 29.5727C52.334 29.3113 52.6442 29.1041 52.9856 28.9626C53.327 28.8212 53.693 28.7484 54.0625 28.7484C54.432 28.7484 54.798 28.8212 55.1394 28.9626C55.4808 29.1041 55.791 29.3113 56.0523 29.5727C56.3137 29.834 56.5209 30.1442 56.6624 30.4856C56.8038 30.827 56.8766 31.193 56.8766 31.5625C56.8766 31.932 56.8038 32.298 56.6624 32.6394C56.5209 32.9808 56.3137 33.291 56.0523 33.5523Z" fill="#E966C3"/>
</svg>
