<svg width="23" height="18" viewBox="0 0 23 18" fill="none" xmlns="http://www.w3.org/2000/svg">
<path d="M2.70497 2.52301C1.82767 3.37946 1.13567 4.40302 0.670965 5.53158C0.206259 6.66015 -0.0214707 7.87019 0.00159196 9.0883V9.07989C0.0012829 10.2531 0.238924 11.4145 0.700492 12.4956C1.16206 13.5766 1.8382 14.5554 2.68901 15.3741L2.69114 15.3762C4.40085 17.0591 6.71711 18.0029 9.13095 18H13.5174C15.9767 17.9779 18.3368 17.0393 20.1253 15.372L20.12 15.3762C21.0148 14.5816 21.7328 13.6121 22.2285 12.5292C22.7243 11.4463 22.987 10.2735 23 9.08515V9.01369C23.0016 7.79382 22.7457 6.58702 22.2485 5.47034C21.7513 4.35366 21.0239 3.35164 20.1126 2.52826L20.1062 2.52196C19.2376 1.73399 18.2291 1.11128 17.1315 0.685187L17.0666 0.66312C15.9261 0.220253 14.7109 -0.00474496 13.4855 7.58571e-05H9.07562C6.70014 -0.00342908 4.41552 0.901486 2.70072 2.52511L2.70497 2.52301ZM0.868674 8.98007C0.867827 6.79518 1.7458 4.69944 3.30944 3.1539C4.87308 1.60836 6.99431 0.739613 9.20648 0.738777C11.4187 0.73794 13.5406 1.60508 15.1054 3.14944C16.6702 4.6938 17.5498 6.78887 17.5507 8.97377C17.5519 11.1587 16.6744 13.2546 15.111 14.8004C13.5477 16.3462 11.4266 17.2154 9.21446 17.2166C7.00229 17.2179 4.88022 16.3511 3.31508 14.8071C1.74994 13.263 0.869944 11.1681 0.868674 8.98322V8.98007ZM11.1013 13.8557C13.1057 13.0844 14.5015 11.193 14.5015 8.98007C14.5015 6.76712 13.1068 4.87571 11.1375 4.11704L11.1013 4.10444V13.8557ZM3.9242 8.98007C3.92458 10.0297 4.24485 11.0549 4.84333 11.9222C5.44181 12.7896 6.29079 13.4589 7.27976 13.8431L7.31593 13.8557V4.10759C5.31685 4.88412 3.92633 6.77343 3.9242 8.98322V8.98007Z" fill="white"/>
</svg>
