<svg width="69" height="12" viewBox="0 0 69 12" fill="none" xmlns="http://www.w3.org/2000/svg">
<g clip-path="url(#clip0_770_9704)">
<path d="M36.3786 0.183105C33.1841 0.183105 30.5923 2.7392 30.5923 5.89383C30.5923 9.24792 33.0716 11.755 36.3786 11.755C39.6032 11.755 42.1493 9.21463 42.1493 5.95973C42.1493 2.72405 39.6203 0.183105 36.3786 0.183105Z" fill="url(#paint0_linear_770_9704)"/>
<path d="M3.52964 0.391254H0.418945V11.5044H3.51339C5.15525 11.5044 6.34262 11.106 7.38427 10.2222C8.62013 9.17229 9.35301 7.58924 9.35301 5.95313C9.35301 2.67216 6.96002 0.391254 3.52964 0.391254ZM6.00349 8.73788C5.33467 9.35593 4.47352 9.62307 3.10499 9.62307H2.53648V2.27309H3.10499C4.47352 2.27309 5.30164 2.52331 6.00349 3.17246C6.73544 3.83908 7.17194 4.87134 7.17194 5.9373C7.17194 7.00558 6.73544 8.07386 6.00349 8.73788ZM10.3299 11.5044H12.4441V0.391254H10.3302L10.3299 11.5044ZM17.6199 4.65414C16.3492 4.17198 15.9753 3.85395 15.9753 3.25623C15.9753 2.55578 16.6411 2.02301 17.5537 2.02301C18.1881 2.02301 18.7087 2.28946 19.2635 2.92074L20.3684 1.44002C19.4573 0.621828 18.3675 0.205841 17.1787 0.205841C15.2608 0.205841 13.7955 1.57291 13.7955 3.38748C13.7955 4.92182 14.4783 5.70427 16.4638 6.43938C17.2939 6.73776 17.7159 6.93682 17.928 7.07284C18.3509 7.35622 18.5633 7.75474 18.5633 8.22093C18.5633 9.12222 17.8631 9.78774 16.9181 9.78774C15.9093 9.78774 15.0967 9.27175 14.6084 8.30539L13.2433 9.65663C14.2176 11.121 15.3892 11.773 17.0015 11.773C19.1978 11.773 20.7424 10.2713 20.7424 8.12229C20.7424 6.35561 20.0284 5.55515 17.6199 4.65414ZM21.4092 5.95326C21.4092 9.22291 23.9156 11.7551 27.1378 11.7551C28.0487 11.7551 28.8296 11.5707 29.7905 11.1058V8.55493C28.9433 9.42237 28.1947 9.77137 27.2343 9.77137C25.1036 9.77137 23.5895 8.18792 23.5895 5.9373C23.5895 3.80538 25.1509 2.12206 27.1378 2.12206C28.1449 2.12206 28.9108 2.48838 29.7905 3.37152V0.820885C28.8631 0.339273 28.0972 0.140625 27.1861 0.140625C23.9803 0.140625 21.4092 2.724 21.4092 5.95326ZM46.9379 7.85625L44.0416 0.391254H41.7311L46.3373 11.7883H47.4752L52.1617 0.391118H49.8683L46.9379 7.85625ZM53.1238 11.5045H59.1266V9.62307H55.2386V6.62138H58.9778V4.73968H55.2386V2.27295H59.1266V0.391391H53.1237L53.1238 11.5045ZM67.5036 3.67099C67.5036 1.58915 66.1063 0.391254 63.6643 0.391254H60.5238V11.5044H62.6411V7.03792H62.9181L65.8453 11.5044H68.4486L65.0297 6.8233C66.6265 6.48877 67.5036 5.37178 67.5036 3.67099ZM63.2569 5.50631H62.6411V2.13884H63.2907C64.6114 2.13884 65.327 2.70709 65.327 3.7886C65.327 4.90422 64.6114 5.50631 63.2569 5.50631Z" fill="white"/>
</g>
<defs>
<linearGradient id="paint0_linear_770_9704" x1="254.959" y1="105.06" x2="1055.62" y2="930.677" gradientUnits="userSpaceOnUse">
<stop stop-color="#F34F26"/>
<stop offset="1" stop-color="#F69E35"/>
</linearGradient>
<clipPath id="clip0_770_9704">
<rect width="68.2" height="11.7333" fill="white" transform="translate(0.366699 0.133301)"/>
</clipPath>
</defs>
</svg>
