<svg width="90" height="30" viewBox="0 0 65 26" fill="none" xmlns="http://www.w3.org/2000/svg">
<g clip-path="url(#clip0_725_4533)">
<path d="M46.0749 7.04044C47.8618 7.04044 49.2426 7.52781 50.2986 8.50256C51.3545 9.47718 51.8418 10.7768 51.8418 12.4013V20.1987H49.5675V18.412H49.4863C48.5117 19.8741 47.1308 20.6051 45.5063 20.6051C44.1254 20.6051 42.9071 20.1989 41.9324 19.3868C41.0389 18.5745 40.4703 17.4374 40.4703 16.219C40.4703 14.9194 40.9578 13.8634 41.9324 13.0512C42.9071 12.2389 44.2879 11.914 45.9124 11.914C47.3744 11.914 48.5117 12.1578 49.405 12.7263V12.1578C49.405 11.3996 49.122 10.6416 48.556 10.1476L48.4303 10.0459C47.7805 9.4773 46.9683 9.15243 46.0749 9.15243C44.694 9.15243 43.6382 9.72105 42.9071 10.8582L40.7953 9.5583C42.0948 7.85256 43.8005 7.04044 46.0749 7.04044ZM34.6222 1.51722C36.0796 1.51722 37.4647 2.02439 38.5721 2.9702L38.7647 3.14158C39.9018 4.11633 40.4703 5.57845 40.4703 7.12169C40.4703 8.66493 39.9018 10.0458 38.7647 11.1017C37.6275 12.1577 36.2467 12.7262 34.6222 12.7262L30.7235 12.6449V20.1989H28.2866V1.51709L34.6222 1.51722ZM46.3997 13.8634C45.425 13.8634 44.6128 14.107 43.963 14.5944C43.3132 15.0005 42.9883 15.569 42.9883 16.3C42.9883 16.9499 43.3133 17.5184 43.8005 17.8434C44.3692 18.2495 45.0189 18.4931 45.6688 18.4931C46.5784 18.4931 47.4882 18.1393 48.1997 17.4978L48.3492 17.356C49.1614 16.625 49.5675 15.7315 49.5675 14.7568C48.8365 14.1883 47.7805 13.8633 46.3998 13.8633L46.3997 13.8634ZM34.7847 3.79146H30.7235V10.2896H34.7847C35.6781 10.2896 36.5716 9.96468 37.1402 9.31493C38.4397 8.09656 38.4397 6.06595 37.2215 4.84745L37.1402 4.7662C36.4903 4.11646 35.6781 3.71033 34.7846 3.79158L34.7847 3.79146ZM65.0002 7.44656L56.959 25.8846H54.5222L57.5275 19.4679L52.2479 7.52781H54.8471L58.6646 16.7061H58.7458L62.4822 7.52781H65.0002V7.44656Z" fill="#5F6368"/>
<path d="M21.0575 11.0204C21.0575 10.2894 20.9763 9.55839 20.895 8.82739H10.7422V12.9699H16.509C16.2654 14.2694 15.5344 15.4877 14.3973 16.2189V18.8992H17.8899C19.9205 17.0311 21.0576 14.2694 21.0576 11.0205L21.0575 11.0204Z" fill="#4285F4"/>
<path d="M10.7422 21.4985C13.6662 21.4985 16.1029 20.5237 17.8899 18.8992L14.3973 16.2189C13.4225 16.8686 12.2042 17.2747 10.7422 17.2747C7.98043 17.2747 5.54369 15.4066 4.73145 12.8074H1.15771V15.569C3.02583 19.2241 6.68094 21.4985 10.7422 21.4985Z" fill="#34A853"/>
<path d="M4.73126 12.8074C4.24401 11.5078 4.24401 10.0458 4.73126 8.66493V5.90332H1.15753C-0.385842 8.90868 -0.385842 12.4825 1.15753 15.569L4.73126 12.8074Z" fill="#FBBC04"/>
<path d="M10.7421 4.27887C12.2853 4.27887 13.7473 4.84749 14.8846 5.90336L17.9711 2.81688C16.0216 1.02989 13.4225 -0.0259822 10.8232 0.0551409C6.76199 0.0551409 3.02576 2.32951 1.23877 5.98461L4.81263 8.74622C5.54362 6.14699 7.98036 4.27887 10.7421 4.27887Z" fill="#EA4335"/>
</g>
<defs>
<clipPath id="clip0_725_4533">
<rect width="90" height="30" fill="white" transform="translate(0 0.0507812)"/>
</clipPath>
</defs>
</svg>
