<svg width="36" height="29" viewBox="0 0 36 29" fill="none" xmlns="http://www.w3.org/2000/svg">
<g clip-path="url(#clip0_1535_751)">
<path d="M18.2634 28.3704C16.0652 28.3704 13.8669 27.5695 12.0941 25.9314C10.2504 24.2568 9.15124 21.8906 9.00941 19.3787C8.86759 16.8304 9.71854 14.3914 11.3495 12.4984L19.398 3.25185C22.8018 -0.643347 28.6875 -1.00738 32.5168 2.52378C34.3605 4.19835 35.4596 6.56459 35.6014 9.07645C35.7433 11.6247 34.8923 14.0638 33.2614 15.9568L25.2128 25.1669C23.3691 27.2783 20.8163 28.3704 18.2634 28.3704ZM26.312 4.08914C24.8228 4.08914 23.3691 4.708 22.3054 5.90933L14.2924 15.1559C13.3351 16.248 12.8741 17.6677 12.945 19.1603C13.0159 20.6528 13.6542 21.9998 14.7178 22.9827C16.9161 25.0213 20.3199 24.8029 22.3054 22.5458L30.354 13.3357C31.3113 12.2436 31.7722 10.8238 31.7013 9.33128C31.6304 7.83872 30.9922 6.49179 29.9285 5.50888C28.8648 4.56239 27.5884 4.08914 26.312 4.08914Z" fill="white"/>
<path d="M18.2634 28.3704C16.0652 28.3704 13.8669 27.5695 12.0941 25.9314C10.2504 24.2568 9.15124 21.8906 9.00941 19.3787C8.86759 16.8304 9.71854 14.3914 11.3495 12.4984L19.398 3.25185C22.8018 -0.643347 28.6875 -1.00738 32.5168 2.52378C34.3605 4.19835 35.4596 6.56459 35.6014 9.07645C35.7433 11.6247 34.8923 14.0638 33.2614 15.9568L25.2128 25.1669C23.3691 27.2783 20.8163 28.3704 18.2634 28.3704ZM26.312 4.08914C24.8228 4.08914 23.3691 4.708 22.3054 5.90933L14.2924 15.1559C13.3351 16.248 12.8741 17.6677 12.945 19.1603C13.0159 20.6528 13.6542 21.9998 14.7178 22.9827C16.9161 25.0213 20.3199 24.8029 22.3054 22.5458L30.354 13.3357C31.3113 12.2436 31.7722 10.8238 31.7013 9.33128C31.6304 7.83872 30.9922 6.49179 29.9285 5.50888C28.8648 4.56239 27.5884 4.08914 26.312 4.08914Z" fill="url(#paint0_linear_1535_751)"/>
<path d="M18.2634 28.3704C16.0652 28.3704 13.8669 27.5695 12.0941 25.9314C10.2504 24.2568 9.15124 21.8906 9.00941 19.3787C8.86759 16.8304 9.71854 14.3914 11.3495 12.4984L19.398 3.25185C22.8018 -0.643347 28.6875 -1.00738 32.5168 2.52378C34.3605 4.19835 35.4596 6.56459 35.6014 9.07645C35.7433 11.6247 34.8923 14.0638 33.2614 15.9568L25.2128 25.1669C23.3691 27.2783 20.8163 28.3704 18.2634 28.3704ZM26.312 4.08914C24.8228 4.08914 23.3691 4.708 22.3054 5.90933L14.2924 15.1559C13.3351 16.248 12.8741 17.6677 12.945 19.1603C13.0159 20.6528 13.6542 21.9998 14.7178 22.9827C16.9161 25.0213 20.3199 24.8029 22.3054 22.5458L30.354 13.3357C31.3113 12.2436 31.7722 10.8238 31.7013 9.33128C31.6304 7.83872 30.9922 6.49179 29.9285 5.50888C28.8648 4.56239 27.5884 4.08914 26.312 4.08914Z" fill="url(#paint1_angular_1535_751)"/>
<path d="M18.2989 28.3704C15.9234 28.3704 13.5478 27.4239 11.7396 25.5673L3.23012 16.8304C1.45731 15.0103 0.5 12.644 0.5 10.0958C0.5 7.54749 1.45731 5.14484 3.19466 3.36106C6.81118 -0.352124 12.6969 -0.352124 16.3134 3.36106L24.8228 12.098C28.4394 15.8111 28.4394 21.8542 24.8228 25.5673C23.05 27.4239 20.6745 28.3704 18.2989 28.3704ZM9.75403 4.56238C8.37124 4.56238 6.98846 5.10844 5.96023 6.16415C4.96746 7.18345 4.40017 8.6032 4.40017 10.0593C4.40017 11.5155 4.96746 12.9352 5.96023 13.9545L14.4697 22.6914C16.5616 24.8393 19.9654 24.8393 22.0573 22.6914C23.05 21.6721 23.6173 20.2524 23.6173 18.7962C23.6173 17.3401 23.05 15.9204 22.0573 14.901L13.5478 6.16415C12.5196 5.10844 11.1368 4.56238 9.75403 4.56238Z" fill="url(#paint2_linear_1535_751)"/>
<path d="M18.2989 28.3704C15.9234 28.3704 13.5478 27.4239 11.7396 25.5673L3.23012 16.8304C1.45731 15.0103 0.5 12.644 0.5 10.0958C0.5 7.54749 1.45731 5.14484 3.19466 3.36106C6.81118 -0.352124 12.6969 -0.352124 16.3134 3.36106L24.8228 12.098C28.4394 15.8111 28.4394 21.8542 24.8228 25.5673C23.05 27.4239 20.6745 28.3704 18.2989 28.3704ZM9.75403 4.56238C8.37124 4.56238 6.98846 5.10844 5.96023 6.16415C4.96746 7.18345 4.40017 8.6032 4.40017 10.0593C4.40017 11.5155 4.96746 12.9352 5.96023 13.9545L14.4697 22.6914C16.5616 24.8393 19.9654 24.8393 22.0573 22.6914C23.05 21.6721 23.6173 20.2524 23.6173 18.7962C23.6173 17.3401 23.05 15.9204 22.0573 14.901L13.5478 6.16415C12.5196 5.10844 11.1368 4.56238 9.75403 4.56238Z" fill="url(#paint3_linear_1535_751)"/>
<path d="M18.2989 28.3704C15.9234 28.3704 13.5478 27.4239 11.7396 25.5673L3.23012 16.8304C1.45731 15.0103 0.5 12.644 0.5 10.0958C0.5 7.54749 1.45731 5.14484 3.19466 3.36106C6.81118 -0.352124 12.6969 -0.352124 16.3134 3.36106L24.8228 12.098C28.4394 15.8111 28.4394 21.8542 24.8228 25.5673C23.05 27.4239 20.6745 28.3704 18.2989 28.3704ZM9.75403 4.56238C8.37124 4.56238 6.98846 5.10844 5.96023 6.16415C4.96746 7.18345 4.40017 8.6032 4.40017 10.0593C4.40017 11.5155 4.96746 12.9352 5.96023 13.9545L14.4697 22.6914C16.5616 24.8393 19.9654 24.8393 22.0573 22.6914C23.05 21.6721 23.6173 20.2524 23.6173 18.7962C23.6173 17.3401 23.05 15.9204 22.0573 14.901L13.5478 6.16415C12.5196 5.10844 11.1368 4.56238 9.75403 4.56238Z" fill="url(#paint4_angular_1535_751)"/>
</g>
<g clip-path="url(#clip1_1535_751)">
<path d="M18.2634 28.3704C16.0652 28.3704 13.8669 27.5696 12.0941 25.9314C10.2504 24.2568 9.15124 21.8906 9.00941 19.3787C8.86759 16.8304 9.71854 14.3914 11.3495 12.4984L19.398 3.25185C22.8018 -0.643347 28.6875 -1.00738 32.5168 2.52378C34.3605 4.19835 35.4596 6.56459 35.6014 9.07645C35.7433 11.6247 34.8923 14.0638 33.2613 15.9568L25.2128 25.1669C23.3691 27.2783 20.8163 28.3704 18.2634 28.3704ZM26.312 4.08914C24.8228 4.08914 23.3691 4.708 22.3054 5.90933L14.2924 15.1559C13.3351 16.248 12.8741 17.6677 12.945 19.1603C13.0159 20.6528 13.6542 21.9998 14.7178 22.9827C16.9161 25.0213 20.3199 24.8029 22.3054 22.5458L30.354 13.3357C31.3113 12.2436 31.7722 10.8238 31.7013 9.33128C31.6304 7.83872 30.9922 6.49179 29.9285 5.50888C28.8648 4.56239 27.5884 4.08914 26.312 4.08914Z" fill="white"/>
<path d="M18.2634 28.3704C16.0652 28.3704 13.8669 27.5696 12.0941 25.9314C10.2504 24.2568 9.15124 21.8906 9.00941 19.3787C8.86759 16.8304 9.71854 14.3914 11.3495 12.4984L19.398 3.25185C22.8018 -0.643347 28.6875 -1.00738 32.5168 2.52378C34.3605 4.19835 35.4596 6.56459 35.6014 9.07645C35.7433 11.6247 34.8923 14.0638 33.2613 15.9568L25.2128 25.1669C23.3691 27.2783 20.8163 28.3704 18.2634 28.3704ZM26.312 4.08914C24.8228 4.08914 23.3691 4.708 22.3054 5.90933L14.2924 15.1559C13.3351 16.248 12.8741 17.6677 12.945 19.1603C13.0159 20.6528 13.6542 21.9998 14.7178 22.9827C16.9161 25.0213 20.3199 24.8029 22.3054 22.5458L30.354 13.3357C31.3113 12.2436 31.7722 10.8238 31.7013 9.33128C31.6304 7.83872 30.9922 6.49179 29.9285 5.50888C28.8648 4.56239 27.5884 4.08914 26.312 4.08914Z" fill="url(#paint5_linear_1535_751)"/>
<path d="M18.2989 28.3704C15.9234 28.3704 13.5478 27.424 11.7396 25.5674L3.23012 16.8305C1.45731 15.0103 0.5 12.644 0.5 10.0958C0.5 7.54749 1.45731 5.14484 3.19466 3.36106C6.81118 -0.352124 12.6969 -0.352124 16.3134 3.36106L24.8228 12.098C28.4394 15.8111 28.4394 21.8542 24.8228 25.5674C23.05 27.424 20.6745 28.3704 18.2989 28.3704ZM9.75403 4.56238C8.37124 4.56238 6.98846 5.10844 5.96023 6.16415C4.96746 7.18346 4.40017 8.6032 4.40017 10.0594C4.40017 11.5155 4.96746 12.9353 5.96023 13.9546L14.4697 22.6915C16.5616 24.8393 19.9654 24.8393 22.0573 22.6915C23.05 21.6722 23.6173 20.2524 23.6173 18.7963C23.6173 17.3401 23.05 15.9204 22.0573 14.9011L13.5478 6.16415C12.5196 5.10844 11.1368 4.56238 9.75403 4.56238Z" fill="url(#paint6_linear_1535_751)"/>
</g>
<defs>
<linearGradient id="paint0_linear_1535_751" x1="29.891" y1="0.722485" x2="14.1039" y2="27.3547" gradientUnits="userSpaceOnUse">
<stop stop-color="#FA62B7"/>
<stop offset="0.270833" stop-color="#FF6C63"/>
<stop offset="0.552083" stop-color="#A836ED"/>
<stop offset="0.927083" stop-color="#EB3737"/>
</linearGradient>
<radialGradient id="paint1_angular_1535_751" cx="0" cy="0" r="1" gradientUnits="userSpaceOnUse" gradientTransform="translate(18.7494 14.2292) rotate(33.86) scale(27.3425 27.3372)">
<stop stop-color="#5201D6"/>
<stop offset="0.173165" stop-color="#7E46F8"/>
<stop offset="0.575626" stop-color="#FFC123"/>
<stop offset="0.771795" stop-color="#FE34F4"/>
</radialGradient>
<linearGradient id="paint2_linear_1535_751" x1="0.5" y1="14.4594" x2="27.5665" y2="14.4594" gradientUnits="userSpaceOnUse">
<stop stop-color="#E63858"/>
<stop offset="0.4916" stop-color="#E73799"/>
<stop offset="1" stop-color="#9C6FFF"/>
</linearGradient>
<linearGradient id="paint3_linear_1535_751" x1="0.5" y1="8.63094" x2="27.605" y2="14.2744" gradientUnits="userSpaceOnUse">
<stop stop-color="#FEC638"/>
<stop offset="0.447917" stop-color="#FE70D7"/>
<stop offset="1" stop-color="#FD1154"/>
</linearGradient>
<radialGradient id="paint4_angular_1535_751" cx="0" cy="0" r="1" gradientUnits="userSpaceOnUse" gradientTransform="translate(10.4065 14.4733) rotate(32.9961) scale(27.4913 27.1339)">
<stop stop-color="#5201D6"/>
<stop offset="0.173165" stop-color="#7E46F8"/>
<stop offset="0.575626" stop-color="#FFC123"/>
<stop offset="0.771795" stop-color="#FE34F4"/>
</radialGradient>
<linearGradient id="paint5_linear_1535_751" x1="29.891" y1="0.722485" x2="14.1039" y2="27.3547" gradientUnits="userSpaceOnUse">
<stop offset="0.00558659" stop-color="#63D2FF"/>
<stop offset="0.229167" stop-color="#9C6FFF"/>
<stop offset="0.520833" stop-color="#FA62B7"/>
<stop offset="0.729167" stop-color="#63D2FF"/>
</linearGradient>
<linearGradient id="paint6_linear_1535_751" x1="0.5" y1="8.63094" x2="27.605" y2="14.2744" gradientUnits="userSpaceOnUse">
<stop stop-color="#F9C674"/>
<stop offset="0.360655" stop-color="#E964C4"/>
<stop offset="0.62312" stop-color="#FA62B7"/>
<stop offset="1" stop-color="#9C6FFF"/>
</linearGradient>
<clipPath id="clip0_1535_751">
<rect width="35.1015" height="28.2857" fill="white" transform="translate(0.5 0.0847168)"/>
</clipPath>
<clipPath id="clip1_1535_751">
<rect width="35.1015" height="28.2857" fill="white" transform="translate(0.5 0.0847168)"/>
</clipPath>
</defs>
</svg>
