<svg width="29" height="22" viewBox="0 0 29 22" fill="none" xmlns="http://www.w3.org/2000/svg">
<g clip-path="url(#clip0_770_9687)">
<path d="M10.7227 4.37305H18.2499V17.6515H10.7227V4.37305Z" fill="#FF5F00"/>
<path d="M11.2003 11.0123C11.2003 8.31442 12.4906 5.92144 14.4739 4.37303C13.0164 3.24697 11.1764 2.56665 9.16915 2.56665C4.41364 2.56665 0.566406 6.34367 0.566406 11.0123C0.566406 15.6809 4.41364 19.4579 9.16904 19.4579C11.1763 19.4579 13.0163 18.7776 14.4739 17.6515C12.4906 16.1266 11.2003 13.7102 11.2003 11.0123Z" fill="#EB001B"/>
<path d="M28.4056 11.0123C28.4056 15.6808 24.5583 19.4579 19.8029 19.4579C17.7957 19.4579 15.9557 18.7776 14.498 17.6515C16.5053 16.1032 17.7718 13.7102 17.7718 11.0123C17.7718 8.31442 16.4814 5.92144 14.498 4.37303C15.9556 3.24697 17.7957 2.56665 19.8029 2.56665C24.5583 2.56665 28.4056 6.36719 28.4056 11.0123Z" fill="#F79E1B"/>
</g>
<defs>
<clipPath id="clip0_770_9687">
<rect width="27.8667" height="21.2667" fill="white" transform="translate(0.566406 0.366699)"/>
</clipPath>
</defs>
</svg>
