<svg width="25" height="28" viewBox="0 0 25 28" fill="none" xmlns="http://www.w3.org/2000/svg">
<path d="M9.70747 6.38254C9.8571 6.31286 10.0208 6.27675 10.1865 6.27685H17.1371C17.9602 6.27685 18.7279 6.32923 19.4294 6.43966C19.6257 6.47027 19.821 6.50682 20.015 6.54925C20.29 6.60858 20.5618 6.68121 20.8294 6.76685C21.1742 6.8795 21.4954 7.01069 21.7906 7.16432C22.1386 4.9933 21.7882 3.5169 20.5879 2.17948C19.2662 0.706982 16.8791 0.0756836 13.8243 0.0756836H4.95774C4.33347 0.0756836 3.80239 0.52016 3.70456 1.12281L0.0129981 24.0196C-0.060378 24.4718 0.297117 24.8802 0.764298 24.8802H6.2385L9.09041 7.19288C9.11845 7.01902 9.18926 6.85444 9.29675 6.71328C9.40424 6.57213 9.54519 6.45862 9.70747 6.38254Z" fill="#27346A"/>
<path d="M21.6998 7.67211C20.531 13.5428 16.5302 15.5734 11.4206 15.5734H8.81883C8.19466 15.5734 7.66747 16.018 7.57049 16.6207L5.86037 27.2232C5.79647 27.6183 6.10894 27.9764 6.51772 27.9764H11.1317C11.396 27.9763 11.6516 27.884 11.8525 27.7161C12.0535 27.5482 12.1866 27.3157 12.2279 27.0603L12.2728 26.8304L13.1424 21.4403L13.1985 21.1424C13.2398 20.8871 13.3728 20.6546 13.5738 20.4867C13.7747 20.3188 14.0303 20.2265 14.2945 20.2264H14.9851C19.4547 20.2264 22.9544 18.4505 23.9772 13.3145C24.4041 11.1681 24.1832 9.37612 23.0539 8.11742C22.7114 7.73617 22.286 7.42131 21.7905 7.16431C21.7637 7.33027 21.7345 7.49845 21.6998 7.67211Z" fill="#2790C3"/>
<path d="M20.5675 6.68725C20.3853 6.63521 20.2013 6.58913 20.0159 6.5491C19.8218 6.50737 19.6266 6.47107 19.4304 6.44026C18.7281 6.32909 17.9609 6.27661 17.1371 6.27661H10.1873C10.0215 6.27625 9.85769 6.31267 9.7083 6.38314C9.54584 6.45899 9.40473 6.57242 9.29719 6.71362C9.18965 6.85482 9.11893 7.01952 9.09114 7.19347L7.61395 16.3536L7.57129 16.6206C7.66846 16.0178 8.19555 15.5733 8.81982 15.5733H11.4215C16.5311 15.5733 20.5319 13.5435 21.7007 7.67198C21.7354 7.49832 21.7646 7.33004 21.7915 7.16418C21.4955 7.01138 21.1752 6.87936 20.8302 6.76745C20.7431 6.73923 20.6556 6.71249 20.5676 6.68725" fill="#1F264F"/>
</svg>
