<svg width="18" height="18" viewBox="0 0 18 18" fill="none" xmlns="http://www.w3.org/2000/svg">
<path fill-rule="evenodd" clip-rule="evenodd" d="M6.83768 1.4141C7.41718 0.920301 8.14827 0.639762 8.90935 0.619143C9.67042 0.598524 10.4156 0.839068 11.021 1.30077L11.1627 1.4141L11.476 1.68077C11.7041 1.87546 11.9805 2.00502 12.276 2.05577L12.4243 2.0741L12.8352 2.10744C13.5962 2.16816 14.3134 2.4883 14.8667 3.01434C15.4201 3.54037 15.7761 4.24042 15.8752 4.99744L15.8927 5.1641L15.926 5.57577C15.9496 5.87437 16.0532 6.16109 16.226 6.40577L16.3177 6.5241L16.586 6.83744C17.0798 7.41694 17.3604 8.14802 17.381 8.9091C17.4016 9.67018 17.161 10.4154 16.6993 11.0208L16.586 11.1624L16.3185 11.4758C16.1238 11.7038 15.9943 11.9802 15.9435 12.2758L15.9252 12.4241L15.8927 12.8349C15.832 13.596 15.5118 14.3131 14.9858 14.8665C14.4597 15.4198 13.7597 15.7758 13.0027 15.8749L12.8352 15.8924L12.4243 15.9258C12.1257 15.9494 11.839 16.053 11.5943 16.2258L11.476 16.3183L11.1618 16.5849C10.5824 17.0789 9.85141 17.3595 9.09033 17.3803C8.32925 17.4011 7.584 17.1607 6.97851 16.6991L6.83768 16.5858L6.52435 16.3183C6.29627 16.1236 6.01989 15.994 5.72435 15.9433L5.57601 15.9258L5.16518 15.8924C4.40412 15.8317 3.68697 15.5116 3.13363 14.9855C2.58029 14.4595 2.2243 13.7595 2.12518 13.0024L2.10768 12.8358L2.07435 12.4241C2.05075 12.1255 1.94711 11.8388 1.77435 11.5941L1.68185 11.4758L1.41435 11.1616C0.920545 10.5821 0.640006 9.85102 0.619387 9.08994C0.598769 8.32886 0.839312 7.58366 1.30101 6.97827L1.41435 6.83744L1.68101 6.5241C1.87571 6.29603 2.00526 6.01965 2.05601 5.7241L2.07435 5.57577L2.10768 5.16494C2.1684 4.40388 2.48855 3.68673 3.01458 3.13339C3.54062 2.58005 4.24066 2.22406 4.99768 2.12494L5.16435 2.10744L5.57601 2.0741C5.87461 2.0505 6.16133 1.94687 6.40601 1.7741L6.52435 1.6816L6.83768 1.4141ZM11.0835 9.83327C10.752 9.83327 10.4341 9.96496 10.1996 10.1994C9.96521 10.4338 9.83351 10.7517 9.83351 11.0833C9.83351 11.4148 9.96521 11.7327 10.1996 11.9672C10.4341 12.2016 10.752 12.3333 11.0835 12.3333C11.415 12.3333 11.733 12.2016 11.9674 11.9672C12.2018 11.7327 12.3335 11.4148 12.3335 11.0833C12.3335 10.7517 12.2018 10.4338 11.9674 10.1994C11.733 9.96496 11.415 9.83327 11.0835 9.83327ZM10.911 5.91077L5.91101 10.9108C5.83142 10.9876 5.76794 11.0796 5.72426 11.1813C5.68059 11.2829 5.6576 11.3923 5.65664 11.5029C5.65568 11.6136 5.67676 11.7233 5.71866 11.8257C5.76056 11.9281 5.82244 12.0212 5.90068 12.0994C5.97893 12.1777 6.07197 12.2396 6.17439 12.2815C6.2768 12.3234 6.38653 12.3444 6.49718 12.3435C6.60783 12.3425 6.71718 12.3195 6.81885 12.2759C6.92052 12.2322 7.01247 12.1687 7.08935 12.0891L12.0893 7.0891C12.2411 6.93193 12.3251 6.72143 12.3232 6.50293C12.3213 6.28444 12.2337 6.07543 12.0792 5.92092C11.9247 5.76641 11.7157 5.67877 11.4972 5.67687C11.2787 5.67498 11.0682 5.75897 10.911 5.91077ZM6.91685 5.6666C6.58533 5.6666 6.26738 5.7983 6.03296 6.03272C5.79854 6.26714 5.66685 6.58508 5.66685 6.9166C5.66685 7.24812 5.79854 7.56607 6.03296 7.80049C6.26738 8.03491 6.58533 8.1666 6.91685 8.1666C7.24837 8.1666 7.56631 8.03491 7.80073 7.80049C8.03515 7.56607 8.16685 7.24812 8.16685 6.9166C8.16685 6.58508 8.03515 6.26714 7.80073 6.03272C7.56631 5.7983 7.24837 5.6666 6.91685 5.6666Z" fill="#00AA77"/>
</svg>
