<svg width="42" height="14" viewBox="0 0 42 14" fill="none" xmlns="http://www.w3.org/2000/svg">
<g clip-path="url(#clip0_770_9685)">
<path d="M21.626 4.4698C21.603 6.403 23.243 7.48175 24.4783 8.12318C25.7476 8.78124 26.1739 9.20327 26.1689 9.79183C26.1594 10.6925 25.1565 11.09 24.2179 11.1054C22.5805 11.1324 21.6284 10.6344 20.8715 10.2577L20.2816 13.1986C21.041 13.5715 22.4472 13.8966 23.9053 13.9109C27.3281 13.9109 29.5674 12.1106 29.5796 9.31944C29.593 5.77701 24.9809 5.58094 25.0124 3.99757C25.0233 3.51746 25.4533 3.00512 26.3954 2.87485C26.8618 2.80904 28.1492 2.75868 29.6087 3.47482L30.1816 0.6294C29.3967 0.324882 28.3878 0.033288 27.1318 0.033288C23.9102 0.033288 21.6443 1.85805 21.626 4.4698ZM35.6861 0.27838C35.0611 0.27838 34.5344 0.666835 34.2994 1.26295L29.41 13.7019H32.8303L33.511 11.6977H37.6905L38.0853 13.7019H41.0999L38.4693 0.27838H35.6861ZM36.1646 3.90457L37.1517 8.94525H34.4484L36.1646 3.90457ZM17.4791 0.278548L14.7831 13.7017H18.0423L20.7371 0.278213L17.4791 0.278548ZM12.6575 0.278548L9.26512 9.41495L7.89284 1.64637C7.73182 0.779141 7.09594 0.27838 6.38979 0.27838H0.844275L0.766602 0.668178C1.90507 0.9314 3.19858 1.35595 3.98224 1.81021C4.46183 2.0877 4.59858 2.33027 4.75614 2.98967L7.35527 13.7019H10.7995L16.08 0.27838L12.6575 0.278548Z" fill="white"/>
</g>
<defs>
<clipPath id="clip0_770_9685">
<rect width="40.3333" height="13.9333" fill="white" transform="translate(0.766602 0.0334473)"/>
</clipPath>
</defs>
</svg>
